<svg xmlns="http://www.w3.org/2000/svg" version="1.1" xmlns:xlink="http://www.w3.org/1999/xlink" xmlns:svgjs="http://svgjs.dev/svgjs" width="1000" height="623" viewBox="0 0 1000 623"><g transform="matrix(1,0,0,1,-0.6060606060606233,0.2522267206477409)"><svg viewBox="0 0 396 247" data-background-color="#ffffff" preserveAspectRatio="xMidYMid meet" height="623" width="1000" xmlns="http://www.w3.org/2000/svg" xmlns:xlink="http://www.w3.org/1999/xlink"><g id="tight-bounds" transform="matrix(1,0,0,1,0.2400000000000091,-0.09999999999999432)"><svg viewBox="0 0 395.52 247.2" height="247.2" width="395.52"><g><svg></svg></g><g><svg viewBox="0 0 395.52 247.2" height="247.2" width="395.52"><g transform="matrix(1,0,0,1,137.37471891891892,47.215199999999996)"><svg viewBox="0 0 120.77056216216215 152.7696" height="152.7696" width="120.77056216216215"><g><svg viewBox="0 0 120.77056216216215 152.7696" height="152.7696" width="120.77056216216215"><g><svg viewBox="0 0 120.77056216216215 152.7696" height="152.7696" width="120.77056216216215"><g><svg viewBox="0 0 120.77056216216215 152.7696" height="152.7696" width="120.77056216216215"><g id="textblocktransform"><svg viewBox="0 0 120.77056216216215 152.7696" height="152.7696" width="120.77056216216215" id="textblock"><g><svg viewBox="0 0 120.77056216216215 152.7696" height="152.7696" width="120.77056216216215"><g transform="matrix(1,0,0,1,0,0)"><svg width="120.77056216216215" viewBox="1.9000000953674316 -28.90999984741211 22.860000610351562 28.90999984741211" height="152.7696" data-palette-color="#ff0033"><path d="M15.04 0L2.2 0 2.05-2.25 4.93-2.98Q4.98-3.17 5.03-4.13 5.08-5.08 5.13-6.69 5.18-8.3 5.18-10.3L5.18-10.3 5.22-18.51Q5.22-20.51 5.18-22.07 5.13-23.63 5.08-24.56 5.03-25.49 4.98-25.63L4.98-25.63 1.9-26.42 2.05-28.66 16.89-28.66Q17.82-28.66 19.02-28.69 20.21-28.71 21.44-28.78 22.66-28.86 23.49-28.91L23.49-28.91 24.76-21.92 22.07-21.58 20.26-25.78Q19.78-25.88 19.26-25.93 18.75-25.98 18.21-25.98L18.21-25.98 13.96-25.98Q13.18-25.98 12.35-25.93 11.52-25.88 10.99-25.78L10.99-25.78Q10.99-25.59 10.96-25.17 10.94-24.76 10.94-24.07 10.94-23.39 10.94-22.31 10.94-21.24 10.94-19.68L10.94-19.68 10.99-8.74Q10.99-7.32 11.04-6.08 11.08-4.83 11.13-4 11.18-3.17 11.23-2.98L11.23-2.98 15.19-2.34 15.04 0ZM21.14-9.38L18.51-9.38 17.97-12.84Q17.48-12.94 16.82-12.99 16.16-13.04 15.33-13.04L15.33-13.04 12.16-13.04Q11.38-13.04 10.69-12.99 10.01-12.94 9.42-12.89L9.42-12.89 9.42-16.06Q9.96-16.02 10.67-15.97 11.38-15.92 12.16-15.92L12.16-15.92 15.33-15.92Q16.31-15.92 16.99-15.97 17.68-16.02 17.97-16.06L17.97-16.06 18.51-19.34 21.14-19.34 21.14-9.38Z" opacity="1" transform="matrix(1,0,0,1,0,0)" fill="#ff0033" class="undefined-text-0" data-fill-palette-color="primary" id="text-0"></path></svg></g></svg></g></svg></g></svg></g></svg></g></svg></g></svg></g><g><path d="M183.985 0c30.402 0 58.24 10.976 79.768 29.183l-11.147 0c-19.26-14.022-42.974-22.294-68.621-22.295-25.647 0-49.361 8.272-68.621 22.295l-11.147 0c21.528-18.206 49.366-29.183 79.768-29.183zM183.985 247.2c-30.402 0-58.24-10.976-79.768-29.183h11.147c19.26 14.022 42.974 22.294 68.621 22.295 25.647 0 49.361-8.272 68.621-22.295l11.147 0c-21.528 18.206-49.366 29.183-79.768 29.183z" fill="#ff0033" stroke="transparent" data-fill-palette-color="tertiary"></path></g></svg></g><defs></defs></svg><rect width="395.52" height="247.2" fill="none" stroke="none" visibility="hidden"></rect></g></svg></g></svg>